<svg width="30" height="31" viewBox="0 0 30 31" fill="none" xmlns="http://www.w3.org/2000/svg">
<g filter="url(#filter0_ii_152_2388)">
<circle cx="14.3724" cy="15.6558" r="3.11854" fill="url(#paint0_linear_152_2388)"/>
</g>
<g filter="url(#filter1_ii_152_2388)">
<path d="M15.4893 19.6075C15.1669 19.6895 14.8293 19.7335 14.4814 19.7335C14.4655 19.7335 14.4495 19.7317 14.4336 19.7316V30.7687C15.0165 30.7686 15.4893 30.2959 15.4893 29.713V26.9396L16.959 28.4103C17.3415 28.7927 17.9622 28.7928 18.3447 28.4103C18.7272 28.0278 18.7272 27.4071 18.3447 27.0245L15.4893 24.1691V22.8488L16.7529 24.1124C17.1355 24.495 17.7561 24.495 18.1387 24.1124C18.5209 23.7299 18.521 23.1101 18.1387 22.7277L15.4893 20.0782V19.6075ZM17.9404 17.8155C17.5894 18.3765 17.1055 18.8448 16.5332 19.1788L19.8066 22.4532V26.3458C19.8067 26.8757 20.2367 27.3058 20.7666 27.3058C21.2965 27.3057 21.7256 26.8757 21.7256 26.3458V24.3722L23.6777 26.3243C24.0603 26.7069 24.6809 26.7069 25.0635 26.3243C25.4458 25.9418 25.4459 25.3221 25.0635 24.9396L22.9951 22.8712H25.2764C25.8062 22.8712 26.2361 22.442 26.2363 21.9122C26.2363 21.3823 25.8063 20.9523 25.2764 20.9523H21.0762L17.9404 17.8155ZM27.1748 11.7902C26.7923 11.4077 26.1716 11.4078 25.7891 11.7902L22.835 14.7443H21.4795L22.7607 13.464C23.1433 13.0814 23.1433 12.4608 22.7607 12.0782C22.3782 11.6957 21.7576 11.6957 21.375 12.0782L18.71 14.7443H18.4561C18.523 15.0373 18.5595 15.3421 18.5596 15.6554C18.5596 16.0531 18.5016 16.4375 18.3955 16.8009L21.375 19.7823C21.7576 20.1648 22.3782 20.1648 22.7607 19.7823C23.1433 19.3998 23.1432 18.7792 22.7607 18.3966L21.0273 16.6632H22.958L25.7891 19.4943C26.1716 19.8768 26.7923 19.8768 27.1748 19.4943C27.5572 19.1117 27.5573 18.491 27.1748 18.1085L25.7305 16.6632H28.6348C29.1646 16.6632 29.5945 16.2339 29.5947 15.7042C29.5947 15.1743 29.1647 14.7443 28.6348 14.7443H25.6064L27.1748 13.1759C27.5572 12.7933 27.5573 12.1727 27.1748 11.7902ZM20.7461 3.90149C20.2164 3.90165 19.7873 4.33078 19.7871 4.86047V9.06067L16.6475 12.2003C17.2077 12.5522 17.6757 13.0366 18.0088 13.6095L21.2881 10.3302H25.1807C25.7105 10.3301 26.1396 9.90009 26.1396 9.37024C26.1394 8.84059 25.7103 8.41139 25.1807 8.41125H23.207L25.1592 6.4591C25.5417 6.07654 25.5417 5.45592 25.1592 5.07336C24.7767 4.6912 24.1569 4.69126 23.7744 5.07336L21.7061 7.14172V4.86047C21.7059 4.33068 21.2759 3.90149 20.7461 3.90149ZM14.4336 11.5782C14.4495 11.5781 14.4655 11.5773 14.4814 11.5773C14.8321 11.5773 15.1724 11.622 15.4971 11.7052L18.3447 8.85754C18.7269 8.47503 18.7269 7.85524 18.3447 7.47277C17.9622 7.09021 17.3415 7.09021 16.959 7.47277L15.4893 8.9425V7.1427L18.3447 4.28723C18.7272 3.90469 18.7272 3.28405 18.3447 2.90149C17.9622 2.51893 17.3415 2.51893 16.959 2.90149L15.4893 4.37121V1.69445C15.4893 1.11157 15.0165 0.638879 14.4336 0.63879V11.5782Z" fill="url(#paint1_linear_152_2388)"/>
</g>
<g filter="url(#filter2_ii_152_2388)">
<path d="M12.5938 0.928208C11.2922 1.01512 10.211 1.96643 9.95996 3.24657L9.44336 5.88036C9.43183 5.93933 9.42578 5.99995 9.42578 6.06004V9.60106C9.42327 9.59578 9.41941 9.59076 9.41699 9.58543L8.47754 7.50829L8.10156 7.72899C7.09623 8.31867 6.03797 8.81335 4.94043 9.20555L4.01074 9.53758L8.17969 6.59129L8 5.87547L7.62207 6.09813C6.61672 6.68782 5.55752 7.1815 4.45996 7.57372L3.53027 7.90672L7.76074 4.91747L7.42969 3.59715C7.26423 2.93581 6.46865 2.66952 5.93848 3.09813L4.82031 4.00243L3.24121 5.6743C3.20681 5.71075 3.17459 5.75 3.14648 5.79149L2.31836 7.01512C2.22762 7.14911 2.14803 7.29066 2.08105 7.43797L1.46191 8.7993L1.03613 10.1548C0.97049 10.3641 0.981111 10.5899 1.06543 10.7925L1.10547 10.8911C1.15061 10.9993 1.21614 11.098 1.29785 11.1821L2.80566 12.7329C2.83704 12.7652 2.87152 12.7953 2.90723 12.8227L4.91602 14.3647L6.71973 15.3823C6.76486 15.4078 6.8126 15.4292 6.86133 15.4468L8.25195 15.9487L7.40137 15.8618C7.3442 15.8559 7.28753 15.8439 7.23242 15.8276L4.81738 15.1128C4.75537 15.0944 4.69647 15.0675 4.63965 15.0366L4.63672 15.0845C4.57328 16.2481 4.40004 17.4031 4.12109 18.5347L3.88477 19.4936L3.73535 14.5161L3.02637 14.1069L3.01074 14.3911C2.94732 15.5549 2.77508 16.7106 2.49609 17.8423L2.25977 18.8013L2.10254 13.5727L1.52441 13.2397C0.934092 12.8988 0.188599 13.2854 0.12793 13.9643L0.000976562 15.397L0.104492 17.6948C0.106768 17.7446 0.112843 17.7944 0.123047 17.8432L0.426758 19.2895C0.459969 19.448 0.506092 19.6037 0.56543 19.7544L1.11328 21.146L1.79102 22.394C1.89581 22.587 2.0661 22.7366 2.27051 22.8169L2.34961 22.8481C2.47145 22.8959 2.60266 22.9176 2.7334 22.9116L4.89746 22.812C4.94194 22.8099 4.98654 22.8048 5.03027 22.7964L7.37305 22.3462C7.42984 22.3353 7.48624 22.3186 7.54004 22.2973L9.41895 21.5542C9.48699 21.5273 9.5524 21.4927 9.6123 21.4507L11.2217 20.3198L10.8174 20.7466L9.37793 21.9458L7.52539 23.2886C7.48151 23.3204 7.43447 23.3488 7.38574 23.3725L7.01758 23.5513C7.88705 24.2483 8.69327 25.0209 9.4248 25.8618L10.0723 26.6069L6.11035 23.9927L5.68359 24.2007L5.3252 24.3266L5.39844 24.3852C6.31373 25.1068 7.15887 25.9131 7.92383 26.7925L8.57227 27.5376L4.2666 24.6977L4.10938 24.7534C3.97773 24.7997 3.85749 24.8755 3.75879 24.9741L3.69531 25.0386C3.55602 25.178 3.47661 25.3669 3.47656 25.564C3.4766 25.7655 3.55919 25.959 3.7041 26.0991L4.86133 27.2182C4.89761 27.2533 4.93705 27.2852 4.97852 27.314L6.70215 28.5073C6.75873 28.5465 6.82 28.5792 6.88379 28.605L8.6582 29.3218L10.4043 29.7983C10.4843 29.8202 10.5675 29.8315 10.6504 29.8315H11.1104C11.4082 29.8315 11.6886 29.6892 11.8643 29.4487L13.1338 27.7085C13.2501 27.5489 13.3124 27.3561 13.3125 27.1587V26.5991L13.4062 24.0561V19.6577C11.3929 19.4085 9.83419 17.6935 9.83398 15.6128C9.83398 13.5809 11.3201 11.8957 13.2646 11.5854V1.55614C13.2646 1.1923 12.9568 0.90418 12.5938 0.928208Z" fill="url(#paint2_linear_152_2388)"/>
</g>
<defs>
<filter id="filter0_ii_152_2388" x="11.2539" y="12.1641" width="6.2373" height="6.9834" filterUnits="userSpaceOnUse" color-interpolation-filters="sRGB">
<feFlood flood-opacity="0" result="BackgroundImageFix"/>
<feBlend mode="normal" in="SourceGraphic" in2="BackgroundImageFix" result="shape"/>
<feColorMatrix in="SourceAlpha" type="matrix" values="0 0 0 0 0 0 0 0 0 0 0 0 0 0 0 0 0 0 127 0" result="hardAlpha"/>
<feOffset dy="-0.373159"/>
<feGaussianBlur stdDeviation="0.265876"/>
<feComposite in2="hardAlpha" operator="arithmetic" k2="-1" k3="1"/>
<feColorMatrix type="matrix" values="0 0 0 0 0.177543 0 0 0 0 0.628282 0 0 0 0 0.80219 0 0 0 1 0"/>
<feBlend mode="normal" in2="shape" result="effect1_innerShadow_152_2388"/>
<feColorMatrix in="SourceAlpha" type="matrix" values="0 0 0 0 0 0 0 0 0 0 0 0 0 0 0 0 0 0 127 0" result="hardAlpha"/>
<feOffset dy="0.373159"/>
<feGaussianBlur stdDeviation="0.223895"/>
<feComposite in2="hardAlpha" operator="arithmetic" k2="-1" k3="1"/>
<feColorMatrix type="matrix" values="0 0 0 0 0.515301 0 0 0 0 0.85206 0 0 0 0 0.98199 0 0 0 1 0"/>
<feBlend mode="normal" in2="effect1_innerShadow_152_2388" result="effect2_innerShadow_152_2388"/>
</filter>
<filter id="filter1_ii_152_2388" x="14.4336" y="0.265631" width="15.1611" height="30.8762" filterUnits="userSpaceOnUse" color-interpolation-filters="sRGB">
<feFlood flood-opacity="0" result="BackgroundImageFix"/>
<feBlend mode="normal" in="SourceGraphic" in2="BackgroundImageFix" result="shape"/>
<feColorMatrix in="SourceAlpha" type="matrix" values="0 0 0 0 0 0 0 0 0 0 0 0 0 0 0 0 0 0 127 0" result="hardAlpha"/>
<feOffset dy="-0.373159"/>
<feGaussianBlur stdDeviation="0.265876"/>
<feComposite in2="hardAlpha" operator="arithmetic" k2="-1" k3="1"/>
<feColorMatrix type="matrix" values="0 0 0 0 0.177543 0 0 0 0 0.628282 0 0 0 0 0.80219 0 0 0 1 0"/>
<feBlend mode="normal" in2="shape" result="effect1_innerShadow_152_2388"/>
<feColorMatrix in="SourceAlpha" type="matrix" values="0 0 0 0 0 0 0 0 0 0 0 0 0 0 0 0 0 0 127 0" result="hardAlpha"/>
<feOffset dy="0.373159"/>
<feGaussianBlur stdDeviation="0.223895"/>
<feComposite in2="hardAlpha" operator="arithmetic" k2="-1" k3="1"/>
<feColorMatrix type="matrix" values="0 0 0 0 0.515301 0 0 0 0 0.85206 0 0 0 0 0.98199 0 0 0 1 0"/>
<feBlend mode="normal" in2="effect1_innerShadow_152_2388" result="effect2_innerShadow_152_2388"/>
</filter>
<filter id="filter2_ii_152_2388" x="0.000976562" y="0.553649" width="13.4053" height="29.651" filterUnits="userSpaceOnUse" color-interpolation-filters="sRGB">
<feFlood flood-opacity="0" result="BackgroundImageFix"/>
<feBlend mode="normal" in="SourceGraphic" in2="BackgroundImageFix" result="shape"/>
<feColorMatrix in="SourceAlpha" type="matrix" values="0 0 0 0 0 0 0 0 0 0 0 0 0 0 0 0 0 0 127 0" result="hardAlpha"/>
<feOffset dy="-0.373159"/>
<feGaussianBlur stdDeviation="0.265876"/>
<feComposite in2="hardAlpha" operator="arithmetic" k2="-1" k3="1"/>
<feColorMatrix type="matrix" values="0 0 0 0 0.177543 0 0 0 0 0.628282 0 0 0 0 0.80219 0 0 0 1 0"/>
<feBlend mode="normal" in2="shape" result="effect1_innerShadow_152_2388"/>
<feColorMatrix in="SourceAlpha" type="matrix" values="0 0 0 0 0 0 0 0 0 0 0 0 0 0 0 0 0 0 127 0" result="hardAlpha"/>
<feOffset dy="0.373159"/>
<feGaussianBlur stdDeviation="0.223895"/>
<feComposite in2="hardAlpha" operator="arithmetic" k2="-1" k3="1"/>
<feColorMatrix type="matrix" values="0 0 0 0 0.515301 0 0 0 0 0.85206 0 0 0 0 0.98199 0 0 0 1 0"/>
<feBlend mode="normal" in2="effect1_innerShadow_152_2388" result="effect2_innerShadow_152_2388"/>
</filter>
<linearGradient id="paint0_linear_152_2388" x1="14.3724" y1="12.5372" x2="14.3724" y2="18.7743" gradientUnits="userSpaceOnUse">
<stop stop-color="#6AD5FF"/>
<stop offset="1" stop-color="#3DBCED"/>
</linearGradient>
<linearGradient id="paint1_linear_152_2388" x1="22.0142" y1="0.63879" x2="22.0142" y2="30.7687" gradientUnits="userSpaceOnUse">
<stop stop-color="#6AD5FF"/>
<stop offset="1" stop-color="#3DBCED"/>
</linearGradient>
<linearGradient id="paint2_linear_152_2388" x1="6.70361" y1="0.926807" x2="6.70361" y2="29.8315" gradientUnits="userSpaceOnUse">
<stop stop-color="#6AD5FF"/>
<stop offset="1" stop-color="#3DBCED"/>
</linearGradient>
</defs>
</svg>
