<svg width="83" height="32" viewBox="0 0 83 32" fill="none" xmlns="http://www.w3.org/2000/svg">
<g filter="url(#filter0_ii_893_6213)">
<path d="M5.71606 8.642H3.58806V14H0.529063V0.699999H3.58806V6.077H5.79206L9.28806 0.699999H12.5371L8.18606 7.122L12.6701 14H9.17406L5.71606 8.642ZM19.1367 0.472C20.3147 0.472 21.3471 0.706333 22.2337 1.175C23.1331 1.64367 23.8297 2.334 24.3237 3.246C24.8177 4.14533 25.0647 5.23467 25.0647 6.514V14H21.9677V6.248C21.9677 5.20933 21.7144 4.424 21.2077 3.892C20.7011 3.36 20.0107 3.094 19.1367 3.094C18.2501 3.094 17.5471 3.36 17.0277 3.892C16.5211 4.424 16.2677 5.20933 16.2677 6.248V14H11.6507L11.6317 11.492H13.1707V6.514C13.1707 5.23467 13.4177 4.14533 13.9117 3.246C14.4057 2.334 15.1024 1.64367 16.0017 1.175C16.9011 0.706333 17.9461 0.472 19.1367 0.472ZM38.1516 0.699999V14H35.1686V12.385C34.2566 13.6137 32.9139 14.228 31.1406 14.228C29.5699 14.228 28.3413 13.734 27.4546 12.746C26.5806 11.7453 26.1436 10.3267 26.1436 8.49V0.699999H29.2216V8.395C29.2216 9.459 29.4686 10.2633 29.9626 10.808C30.4693 11.34 31.1533 11.606 32.0146 11.606C32.9393 11.606 33.6803 11.321 34.2376 10.751C34.7949 10.1683 35.0736 9.31333 35.0736 8.186V0.699999H38.1516ZM51.7744 14L51.7554 6.039L47.8414 12.594H46.4734L42.5594 6.191V14H39.6714V0.699999H42.2174L47.1954 8.965L52.0974 0.699999H54.6434L54.6624 14H51.7744ZM62.6024 14.228C61.2217 14.228 59.974 13.9303 58.8594 13.335C57.7574 12.7397 56.8897 11.9227 56.2564 10.884C55.6357 9.83267 55.3254 8.65467 55.3254 7.35C55.3254 6.04533 55.6357 4.87367 56.2564 3.835C56.8897 2.78367 57.7574 1.96033 58.8594 1.365C59.974 0.769666 61.2217 0.472 62.6024 0.472C63.983 0.472 65.2244 0.769666 66.3264 1.365C67.4284 1.96033 68.296 2.78367 68.9294 3.835C69.5627 4.87367 69.8794 6.04533 69.8794 7.35C69.8794 8.65467 69.5627 9.83267 68.9294 10.884C68.296 11.9227 67.4284 12.7397 66.3264 13.335C65.2244 13.9303 63.983 14.228 62.6024 14.228ZM62.6024 11.606C63.3877 11.606 64.097 11.4287 64.7304 11.074C65.3637 10.7067 65.8577 10.2 66.2124 9.554C66.5797 8.908 66.7634 8.17333 66.7634 7.35C66.7634 6.52667 66.5797 5.792 66.2124 5.146C65.8577 4.5 65.3637 3.99967 64.7304 3.645C64.097 3.27767 63.3877 3.094 62.6024 3.094C61.817 3.094 61.1077 3.27767 60.4744 3.645C59.841 3.99967 59.3407 4.5 58.9734 5.146C58.6187 5.792 58.4414 6.52667 58.4414 7.35C58.4414 8.17333 58.6187 8.908 58.9734 9.554C59.3407 10.2 59.841 10.7067 60.4744 11.074C61.1077 11.4287 61.817 11.606 62.6024 11.606ZM79.7555 7.065C80.5662 7.30567 81.1868 7.69833 81.6175 8.243C82.0482 8.78767 82.2635 9.459 82.2635 10.257C82.2635 11.435 81.8138 12.3533 80.9145 13.012C80.0278 13.6707 78.7548 14 77.0955 14H70.5405V0.699999H76.7345C78.2798 0.699999 79.4832 0.997666 80.3445 1.593C81.2058 2.18833 81.6365 3.037 81.6365 4.139C81.6365 4.79767 81.4718 5.38033 81.1425 5.887C80.8132 6.381 80.3508 6.77367 79.7555 7.065ZM73.5995 6.21H76.4685C77.1398 6.21 77.6465 6.077 77.9885 5.811C78.3305 5.53233 78.5015 5.127 78.5015 4.595C78.5015 4.07567 78.3242 3.67667 77.9695 3.398C77.6275 3.11933 77.1272 2.98 76.4685 2.98H73.5995V6.21ZM76.9815 11.72C78.4255 11.72 79.1475 11.15 79.1475 10.01C79.1475 8.908 78.4255 8.357 76.9815 8.357H73.5995V11.72H76.9815ZM5.56406 24.901H2.52406V31H1.15606V17.7H2.52406V23.666H5.56406L10.0671 17.7H11.5871L6.64706 24.16L11.8721 31H10.2571L5.56406 24.901ZM18.2589 17.586C19.9182 17.586 21.2292 18.08 22.1919 19.068C23.1545 20.056 23.6359 21.4683 23.6359 23.305V31H22.2299V23.172C22.2299 21.7407 21.8815 20.664 21.1849 19.942C20.4882 19.2073 19.5129 18.84 18.2589 18.84C16.9922 18.84 16.0042 19.2073 15.2949 19.942C14.5982 20.664 14.2499 21.7407 14.2499 23.172V31H11.2479V29.784H12.8439V23.305C12.8439 21.4683 13.3315 20.056 14.3069 19.068C15.2822 18.08 16.5995 17.586 18.2589 17.586ZM36.7475 17.7V31H35.3985V28.758C34.5245 30.3287 33.0362 31.114 30.9335 31.114C29.3502 31.114 28.1088 30.639 27.2095 29.689C26.3102 28.739 25.8605 27.3837 25.8605 25.623V17.7H27.2665V25.585C27.2665 26.991 27.6085 28.055 28.2925 28.777C28.9892 29.499 29.9582 29.86 31.1995 29.86C32.5042 29.86 33.5175 29.48 34.2395 28.72C34.9742 27.9473 35.3415 26.7947 35.3415 25.262V17.7H36.7475ZM53.257 17.7V31H51.908V20.36L46.683 29.309H46.018L40.793 20.417V31H39.444V17.7H40.603L46.379 27.561L52.098 17.7H53.257ZM61.387 17.586C63.1096 17.586 64.465 18.0927 65.453 19.106C66.4536 20.1067 66.954 21.557 66.954 23.457V31H65.567V27.086H57.207V31H55.839V23.457C55.839 21.557 56.333 20.1067 57.321 19.106C58.3216 18.0927 59.677 17.586 61.387 17.586ZM65.567 25.87V23.324C65.567 21.842 65.1996 20.7273 64.465 19.98C63.7303 19.22 62.7043 18.84 61.387 18.84C60.0696 18.84 59.0436 19.22 58.309 19.98C57.5743 20.7273 57.207 21.842 57.207 23.324V25.87H65.567ZM77.9552 20.151C76.6506 19.391 75.2066 18.954 73.6232 18.84V31H72.2172V18.84C70.6592 18.9413 69.2089 19.3783 67.8662 20.151L67.3532 19.049C68.9999 18.0737 70.8492 17.586 72.9012 17.586C74.9912 17.586 76.8469 18.0737 78.4682 19.049L77.9552 20.151Z" fill="url(#paint0_linear_893_6213)"/>
</g>
<defs>
<filter id="filter0_ii_893_6213" x="0.529297" y="0.0988414" width="81.7344" height="31.3883" filterUnits="userSpaceOnUse" color-interpolation-filters="sRGB">
<feFlood flood-opacity="0" result="BackgroundImageFix"/>
<feBlend mode="normal" in="SourceGraphic" in2="BackgroundImageFix" result="shape"/>
<feColorMatrix in="SourceAlpha" type="matrix" values="0 0 0 0 0 0 0 0 0 0 0 0 0 0 0 0 0 0 127 0" result="hardAlpha"/>
<feOffset dy="-0.373159"/>
<feGaussianBlur stdDeviation="0.265876"/>
<feComposite in2="hardAlpha" operator="arithmetic" k2="-1" k3="1"/>
<feColorMatrix type="matrix" values="0 0 0 0 0.177543 0 0 0 0 0.628282 0 0 0 0 0.80219 0 0 0 1 0"/>
<feBlend mode="normal" in2="shape" result="effect1_innerShadow_893_6213"/>
<feColorMatrix in="SourceAlpha" type="matrix" values="0 0 0 0 0 0 0 0 0 0 0 0 0 0 0 0 0 0 127 0" result="hardAlpha"/>
<feOffset dy="0.373159"/>
<feGaussianBlur stdDeviation="0.223895"/>
<feComposite in2="hardAlpha" operator="arithmetic" k2="-1" k3="1"/>
<feColorMatrix type="matrix" values="0 0 0 0 0.515301 0 0 0 0 0.85206 0 0 0 0 0.98199 0 0 0 1 0"/>
<feBlend mode="normal" in2="effect1_innerShadow_893_6213" result="effect2_innerShadow_893_6213"/>
</filter>
<linearGradient id="paint0_linear_893_6213" x1="53.4283" y1="-1" x2="53.4283" y2="35" gradientUnits="userSpaceOnUse">
<stop stop-color="#6AD5FF"/>
<stop offset="1" stop-color="#3DBCED"/>
</linearGradient>
</defs>
</svg>
