<svg xmlns="http://www.w3.org/2000/svg" width="794" height="381" fill="none"><g filter="url(#a)"><path fill="url(#b)" fill-rule="evenodd" d="M133.368 5.063c-4.55 2.774-10.555 8.763-13.344 13.314-4.672 7.616-5.023 12.07-4.419 56.16l.655 47.888 16.496 4.154c21.161 5.33 37.942 15.243 49.332 29.143 11.989 14.631 11.413 16.577-1.746 5.918-25.316-20.503-43.388-24.374-86.105-18.438-36.061 5.01-57.405 3.008-79.223-7.436-7.02-3.357-13.136-5.733-13.593-5.276-.46.457 4.977 6.055 12.078 12.441 22.9 20.585 51.227 26.767 90.244 19.691 35.252-6.39 71.556 11.456 87.359 42.946 2.741 5.459 1.812 5.078-6.644-2.72-21.635-19.956-42.839-26.953-71.878-23.719-10.539 1.175-32.865 2.152-49.615 2.175-28.833.038-31.3-.374-46.317-7.703C7.923 169.345.787 166.459.787 167.19c0 3.612 23.658 23.004 34.563 28.331 13.03 6.365 24.932 7.032 82.179 4.614 18.415-.777 23.27-.074 33.185 4.811 14.837 7.312 30.166 20.527 36.452 31.427l4.918 8.532-8.725-7.091c-4.801-3.9-15.009-10.181-22.686-13.958-12.215-6.01-16.811-6.837-36.799-6.619-12.563.135-33.833 1.14-47.268 2.231-27.516 2.236-43.786-.472-64.158-10.682L0 202.546l6.104 7.598c9.116 11.347 30.944 24.94 45.76 28.493 8.413 2.017 19.56 2.517 31.137 1.396 9.918-.962 20.887-1.972 24.377-2.246l6.344-.495 1.269 61.031c1.112 53.496 1.843 61.901 5.908 68.098 9.233 14.076 11.088 14.261 142.477 14.261h120.63v-34.871l-15.686-3.086c-57.996-11.41-105.34-55.43-121.587-113.047-5.665-20.087-4.622-62.348 2.065-83.75 17.085-54.684 67.79-99.703 120.862-107.31l13.077-1.872L384.23 0 262.934.01C146.377.018 141.317.216 133.368 5.063m277.286 31.683 13.078 1.873c66.223 9.492 121.496 71.144 126.957 141.608 3.827 49.405-19.069 101.3-57.907 131.237-19.833 15.285-41.05 25.368-63.728 30.287l-19.669 4.266v34.665h120.801c131.817 0 131.005.084 141.87-14.677 4.692-6.375 5.134-11.562 5.837-68.639l.761-61.747 10.659 2.107c5.863 1.157 20.367 2.104 32.231 2.104 18.309 0 23.684-1.038 35.531-6.863 7.677-3.774 19.097-12.131 25.378-18.572l11.421-11.712-12.953 6.466c-19.816 9.89-36.551 12.573-64.326 10.309-49.841-4.061-68.494-3.137-84.046 4.157-7.769 3.644-18.334 10.956-23.476 16.25-11.123 11.454-12.25 8.543-2.111-5.456 9.382-12.951 19.93-21.704 35.098-29.128 10.583-5.179 15.134-5.86 33.802-5.055 58.638 2.53 68.934 1.848 83.022-5.507 13.687-7.144 31.183-21.062 31.183-24.805 0-1.173-6.565.827-14.593 4.448-18.399 8.302-47.608 10.36-82.166 5.784-37.678-4.987-62.597 1.64-84.065 22.346-5.235 5.051-9.517 8.246-9.517 7.104 0-4.599 18.212-26.488 27.206-32.698 22.153-15.301 31.434-16.781 83.192-13.283 25.252 1.707 29.312 1.357 42.545-3.655 9.058-3.431 19.691-10.291 27.917-18.011l13.288-12.472-14.623 6.305c-24.334 10.489-45.261 12.476-79.388 7.54-24.668-3.569-32.033-3.756-45.803-1.158-17.57 3.317-42.639 17.385-50.192 28.168-2.279 3.251-4.142 4.68-4.142 3.173 0-5.013 17.001-25.087 27.28-32.211 12.641-8.761 33.792-16.938 43.809-16.938h7.585l-.01-48.854c-.01-54.557-1.464-60.135-18.366-70.439C652.075.216 647.014.018 530.457.01L409.162 0zm-18.255 23.592c-1.667 1.079-3.38 8.558-3.807 16.618l-.779 14.654-11.128-10.395c-11.388-10.64-18.613-12.233-20.113-4.44-.528 2.737 5.439 10.52 15.831 20.664l16.679 16.271v35.172l-19.034 5.847-29.224-29.145c-16.072-16.029-31.084-29.145-33.355-29.145-8.479 0-7.177 7.766 3.188 19.009l10.316 11.192-16.07.762c-15.242.723-16.067 1.086-16.067 7.106 0 6.24.401 6.365 24.424 7.613l24.425 1.269 11.433 10.555c11.157 10.301 11.365 10.776 8.599 19.613l-2.835 9.058-88.887 1.38v6.345c0 6.01.835 6.385 15.862 7.101 8.725.414 15.862 1.223 15.862 1.797 0 .571-4.609 5.883-10.241 11.803s-9.9 12.525-9.486 14.672c1.609 8.362 9.517 4.982 26.033-11.134l17.04-16.625h32.418l7.868 18.828-29.272 29.29c-16.1 16.108-30.011 30.117-30.909 31.129-1.875 2.112 3.634 9.578 7.068 9.578 1.256 0 7.398-4.713 13.646-10.474l11.365-10.476v15.24c0 17.065 4.428 24.201 11.42 18.4 2.873-2.386 3.807-8.819 3.807-26.237v-23.077l11.718-11.895c11.435-11.613 11.905-11.816 19.668-8.558l7.951 3.34 2.538 87.999h6.345c5.964 0 6.421-.962 7.613-16.009l1.269-16.012 10.033 10.302c10.486 10.765 18.237 13.098 20.856 6.278 1.048-2.733-3.858-9.464-15.309-21.003l-16.849-16.979v-16.597c0-16.375.117-16.651 8.624-20.71l8.626-4.113 27.539 27.944c31.942 32.411 35.335 34.815 41.068 29.082 3.71-3.713 3.01-5.112-8.324-16.621l-12.378-12.565 17.519-.761c14.794-.64 17.662-1.503 18.43-5.53 1.409-7.378-4.05-9.106-28.881-9.149l-22.947-.038-21.493-21.9 7.766-18.587 43.737-.693c40.49-.645 43.804-1.051 44.654-5.467 1.292-6.735-3.827-9.103-19.78-9.149l-13.852-.038 10.68-10.882c11.172-11.383 13.45-18.669 6.659-21.275-2.733-1.048-9.464 3.857-21.003 15.308l-16.979 16.849h-18.336c-15.966 0-18.336-.591-18.336-4.568 0-2.512-1.371-5.939-3.043-7.611-2.368-2.368 3.903-10.073 28.176-34.624 17.171-17.37 30.728-33.074 30.127-34.899-2.32-7.035-11.855-5.06-19.923 4.129-4.37 4.977-8.915 9.051-10.1 9.051s-2.495-7.137-2.909-15.862c-.716-15.027-1.091-15.862-7.101-15.862-6.286 0-6.352.234-7.07 24.795l-.729 24.798-10.816 11.288c-10.586 11.05-11.012 11.228-20.153 8.421l-9.337-2.865-.693-44.606c-.576-37.297-1.315-44.715-4.497-45.27-2.094-.366-5.17.218-6.835 1.296m27.412 17.732c-7.119 6.216-8.142 8.586-7.436 17.23l.817 10.022L425.343 92.8c12.027-12.395 14.332-19.699 6.675-21.174-2.175-.418-7.669 2.48-12.207 6.444m-84.763 4.726c-.99.99-1.799 6.535-1.799 12.324 0 8.415 1.548 12.004 7.738 17.932l7.735 7.413-.756-18.99c-.675-16.893-1.332-19.075-5.939-19.735-2.85-.409-5.989.069-6.979 1.056m139.046 51.719-7.523 7.852 18.991-.756c18.367-.733 18.994-.969 18.994-7.103 0-5.721-1.127-6.419-11.469-7.094-10.002-.655-12.433.254-18.993 7.101m-194.986 16.913c-3.433 3.431-1.512 9.638 5.127 16.567 5.261 5.492 9.156 7.119 17.034 7.119h10.218l-12.5-12.69c-12.065-12.25-16.29-14.587-19.879-10.996m203.876 55.125c0 3.578 24.132 24.518 27.505 23.869 6.751-1.302 6.208-8.284-1.312-16.852-5.55-6.327-9.03-8.002-16.608-8.002-5.271 0-9.585.444-9.585.985m-193.986 36.015c-6.169 6.17-.593 11.22 12.395 11.22 7.87 0 12.116-1.541 16.187-5.873 3.035-3.231 5.517-6.487 5.517-7.235 0-.746-6.74-1.561-14.976-1.81-10.928-.327-16.097.673-19.123 3.698m155.918 37.558c0 11.291 1.152 17.141 3.806 19.344 11.167 9.268 16.522-19.702 5.548-30.013-3.231-3.036-6.657-5.518-7.613-5.518-.96 0-1.741 7.284-1.741 16.187m-77.119 8.87c-8.177 8.322-11.877 13.984-10.865 16.623 2.376 6.187 10.18 4.751 17.89-3.294 5.525-5.769 6.822-9.253 6.185-16.626l-.807-9.324z" clip-rule="evenodd"/></g><defs><linearGradient id="b" x1="824.703" x2="824.703" y1="0" y2="380.682" gradientUnits="userSpaceOnUse"><stop stop-color="#6AD5FF"/><stop offset="1" stop-color="#3DBCED"/></linearGradient><filter id="a" width="1649.41" height="396.566" x="0" y="-7.942" color-interpolation-filters="sRGB" filterUnits="userSpaceOnUse"><feFlood flood-opacity="0" result="BackgroundImageFix"/><feBlend in="SourceGraphic" in2="BackgroundImageFix" result="shape"/><feColorMatrix in="SourceAlpha" result="hardAlpha" values="0 0 0 0 0 0 0 0 0 0 0 0 0 0 0 0 0 0 127 0"/><feOffset dy="-7.942"/><feGaussianBlur stdDeviation="5.659"/><feComposite in2="hardAlpha" k2="-1" k3="1" operator="arithmetic"/><feColorMatrix values="0 0 0 0 0.177543 0 0 0 0 0.628282 0 0 0 0 0.80219 0 0 0 1 0"/><feBlend in2="shape" result="effect1_innerShadow_1215_12551"/><feColorMatrix in="SourceAlpha" result="hardAlpha" values="0 0 0 0 0 0 0 0 0 0 0 0 0 0 0 0 0 0 127 0"/><feOffset dy="7.942"/><feGaussianBlur stdDeviation="4.765"/><feComposite in2="hardAlpha" k2="-1" k3="1" operator="arithmetic"/><feColorMatrix values="0 0 0 0 0.515301 0 0 0 0 0.85206 0 0 0 0 0.98199 0 0 0 1 0"/><feBlend in2="effect1_innerShadow_1215_12551" result="effect2_innerShadow_1215_12551"/></filter></defs></svg>