<svg xmlns="http://www.w3.org/2000/svg" width="32" height="30" fill="none"><path fill="#27A9DC" d="M30.685 5.674H5.665L5.293 1.53A1.314 1.314 0 0 0 3.984.333h-2.67a1.314 1.314 0 0 0 0 2.63h1.469l1.511 16.841c.108 1.214.763 2.531 1.893 3.426-2.037 2.601-.176 6.437 3.137 6.437 2.75 0 4.69-2.743 3.747-5.341h7.193c-.942 2.594.993 5.34 3.746 5.34a3.99 3.99 0 0 0 3.984-3.984 3.99 3.99 0 0 0-3.984-3.985H9.333a2.44 2.44 0 0 1-2.243-1.48l21.002-1.234a1.31 1.31 0 0 0 1.198-.994l2.67-10.682a1.315 1.315 0 0 0-1.275-1.633M9.325 27.038a1.36 1.36 0 0 1-1.356-1.356c0-.748.608-1.356 1.355-1.356.748 0 1.356.608 1.356 1.356s-.608 1.356-1.356 1.356m14.685 0a1.36 1.36 0 0 1-1.356-1.356c0-.748.608-1.356 1.356-1.356s1.356.608 1.356 1.356-.608 1.356-1.356 1.356m2.964-10.623-20.238 1.19L5.9 8.303h23.101z"/></svg>