<svg xmlns="http://www.w3.org/2000/svg" width="27" height="28" fill="none"><path fill="#fff" d="M2.903 27.313H0v-1.438c.006-5.555 4.551-10.056 10.16-10.062h5.805c5.609.006 10.154 4.507 10.16 10.062v1.438h-2.903v-1.438c-.005-3.968-3.25-7.183-7.257-7.187H10.16c-4.006.004-7.252 3.22-7.257 7.187zm10.16-12.938c-4.008 0-7.257-3.218-7.257-7.187S9.055 0 13.063 0s7.256 3.218 7.256 7.188c-.004 3.967-3.25 7.182-7.256 7.187m0-11.5c-2.405 0-4.355 1.93-4.355 4.313 0 2.381 1.95 4.312 4.355 4.312 2.404 0 4.354-1.93 4.354-4.312s-1.95-4.313-4.355-4.313"/></svg>