<svg xmlns="http://www.w3.org/2000/svg" width="16" height="16" fill="none"><path fill="#fff" d="M14.75 9.884 11.439 8.4l-.013-.006a1.4 1.4 0 0 0-1.414.183L8.443 9.912c-.914-.495-1.858-1.432-2.355-2.335l1.34-1.593a1.406 1.406 0 0 0 .17-1.418L6.117 1.25A1.41 1.41 0 0 0 4.655.417 4.24 4.24 0 0 0 .969 4.625c0 5.738 4.668 10.406 10.406 10.406a4.24 4.24 0 0 0 4.208-3.686 1.41 1.41 0 0 0-.833-1.46m-3.375 3.46a8.73 8.73 0 0 1-8.719-8.719A2.55 2.55 0 0 1 4.66 2.126L5.982 5.08 4.635 6.684a1.406 1.406 0 0 0-.15 1.463c.662 1.355 2.026 2.71 3.396 3.374a1.4 1.4 0 0 0 1.385-.102 1 1 0 0 0 .078-.06l1.577-1.34 2.953 1.322a2.55 2.55 0 0 1-2.499 2.003"/></svg>