<svg xmlns="http://www.w3.org/2000/svg" width="14" height="16" fill="none"><path fill="#fff" d="M12.25 2H9.5v-.5C9.5.673 8.827 0 8 0H6c-.827 0-1.5.673-1.5 1.5V2H1.75C1.06 2 .5 2.56.5 3.25V5a.5.5 0 0 0 .5.5h.273l.432 9.071A1.5 1.5 0 0 0 3.204 16h7.592c.803 0 1.46-.627 1.499-1.429l.432-9.071H13a.5.5 0 0 0 .5-.5V3.25c0-.69-.56-1.25-1.25-1.25M5.5 1.5A.5.5 0 0 1 6 1h2a.5.5 0 0 1 .5.5V2h-3zm-4 1.75A.25.25 0 0 1 1.75 3h10.5a.25.25 0 0 1 .25.25V4.5h-11zm9.796 11.274a.5.5 0 0 1-.5.476H3.205a.5.5 0 0 1-.5-.476L2.274 5.5h9.452z"/><path fill="#fff" d="M7 14a.5.5 0 0 0 .5-.5V7a.5.5 0 0 0-1 0v6.5a.5.5 0 0 0 .5.5M9.5 14a.5.5 0 0 0 .5-.5V7a.5.5 0 0 0-1 0v6.5a.5.5 0 0 0 .5.5M4.5 14a.5.5 0 0 0 .5-.5V7a.5.5 0 0 0-1 0v6.5a.5.5 0 0 0 .5.5"/></svg>